<svg xmlns="http://www.w3.org/2000/svg" viewBox="0 0 660 540" role="img" aria-label="THE BACK-LEVER LADDER — THE SAME ARITHMETIC, FACE DOWN"><title>THE BACK-LEVER LADDER — THE SAME ARITHMETIC, FACE DOWN</title><defs><marker id="a" viewBox="0 0 10 10" refX="9" refY="5" markerWidth="7" markerHeight="7" orient="auto-start-reverse"><path d="M0 0 L10 5 L0 10 z" fill="#ff9a2e"/></marker><marker id="am" viewBox="0 0 10 10" refX="9" refY="5" markerWidth="6" markerHeight="6" orient="auto-start-reverse"><path d="M0 0 L10 5 L0 10 z" fill="#646d78"/></marker></defs><style>.lbl{font:500 11px "JetBrains Mono",ui-monospace,monospace;fill:#9aa3ad}.lbl-a{font:500 11px "JetBrains Mono",ui-monospace,monospace;fill:#ff9a2e}.lbl-s{font:400 9.5px "JetBrains Mono",ui-monospace,monospace;fill:#646d78;letter-spacing:.08em}.big{font:700 13px "JetBrains Mono",ui-monospace,monospace;fill:#ece7dd}</style><text x="26.0" y="30.0" class="lbl-s" text-anchor="start">THE BACK-LEVER LADDER — THE SAME ARITHMETIC, FACE DOWN</text><line x1="34.0" y1="77.0" x2="39.0" y2="82.0" stroke="#646d78" stroke-width="1"/><line x1="43.0" y1="77.0" x2="48.0" y2="82.0" stroke="#646d78" stroke-width="1"/><line x1="52.0" y1="77.0" x2="57.0" y2="82.0" stroke="#646d78" stroke-width="1"/><line x1="61.0" y1="77.0" x2="66.0" y2="82.0" stroke="#646d78" stroke-width="1"/><line x1="70.0" y1="77.0" x2="75.0" y2="82.0" stroke="#646d78" stroke-width="1"/><line x1="79.0" y1="77.0" x2="84.0" y2="82.0" stroke="#646d78" stroke-width="1"/><line x1="88.0" y1="77.0" x2="93.0" y2="82.0" stroke="#646d78" stroke-width="1"/><line x1="97.0" y1="77.0" x2="102.0" y2="82.0" stroke="#646d78" stroke-width="1"/><line x1="106.0" y1="77.0" x2="111.0" y2="82.0" stroke="#646d78" stroke-width="1"/><line x1="115.0" y1="77.0" x2="120.0" y2="82.0" stroke="#646d78" stroke-width="1"/><line x1="124.0" y1="77.0" x2="129.0" y2="82.0" stroke="#646d78" stroke-width="1"/><line x1="133.0" y1="77.0" x2="138.0" y2="82.0" stroke="#646d78" stroke-width="1"/><line x1="142.0" y1="77.0" x2="147.0" y2="82.0" stroke="#646d78" stroke-width="1"/><line x1="151.0" y1="77.0" x2="156.0" y2="82.0" stroke="#646d78" stroke-width="1"/><line x1="160.0" y1="77.0" x2="165.0" y2="82.0" stroke="#646d78" stroke-width="1"/><line x1="169.0" y1="77.0" x2="174.0" y2="82.0" stroke="#646d78" stroke-width="1"/><line x1="178.0" y1="77.0" x2="183.0" y2="82.0" stroke="#646d78" stroke-width="1"/><line x1="187.0" y1="77.0" x2="192.0" y2="82.0" stroke="#646d78" stroke-width="1"/><line x1="196.0" y1="77.0" x2="201.0" y2="82.0" stroke="#646d78" stroke-width="1"/><line x1="205.0" y1="77.0" x2="210.0" y2="82.0" stroke="#646d78" stroke-width="1"/><line x1="214.0" y1="77.0" x2="219.0" y2="82.0" stroke="#646d78" stroke-width="1"/><line x1="223.0" y1="77.0" x2="228.0" y2="82.0" stroke="#646d78" stroke-width="1"/><line x1="232.0" y1="77.0" x2="237.0" y2="82.0" stroke="#646d78" stroke-width="1"/><line x1="241.0" y1="77.0" x2="246.0" y2="82.0" stroke="#646d78" stroke-width="1"/><line x1="250.0" y1="77.0" x2="255.0" y2="82.0" stroke="#646d78" stroke-width="1"/><line x1="259.0" y1="77.0" x2="264.0" y2="82.0" stroke="#646d78" stroke-width="1"/><line x1="268.0" y1="77.0" x2="273.0" y2="82.0" stroke="#646d78" stroke-width="1"/><line x1="277.0" y1="77.0" x2="282.0" y2="82.0" stroke="#646d78" stroke-width="1"/><line x1="286.0" y1="77.0" x2="291.0" y2="82.0" stroke="#646d78" stroke-width="1"/><line x1="295.0" y1="77.0" x2="300.0" y2="82.0" stroke="#646d78" stroke-width="1"/><line x1="304.0" y1="77.0" x2="309.0" y2="82.0" stroke="#646d78" stroke-width="1"/><line x1="313.0" y1="77.0" x2="318.0" y2="82.0" stroke="#646d78" stroke-width="1"/><line x1="322.0" y1="77.0" x2="327.0" y2="82.0" stroke="#646d78" stroke-width="1"/><line x1="34.0" y1="82.0" x2="330.0" y2="82.0" stroke="#646d78" stroke-width="1.6"/><line x1="262.0" y1="84.0" x2="262.0" y2="196.0" stroke="#646d78" stroke-width="1" stroke-dasharray="3 4"/><polyline points="184.3,113.1 191.7,123.7 232.0,105.0 206.5,141.3 262.0,141.3" fill="none" stroke="#ece7dd" stroke-width="3" stroke-linecap="round" stroke-linejoin="round" opacity="1.0"/><polyline points="262.0,141.3 262.0,111.8 262.0,84.0" fill="none" stroke="#ece7dd" stroke-width="3" stroke-linecap="round" stroke-linejoin="round" opacity="1.0"/><circle cx="282.4" cy="141.3" r="6.4" fill="none" stroke="#ece7dd" stroke-width="3" opacity="1.0"/><circle cx="262.0" cy="84.0" r="3.4" fill="#ece7dd"/><circle cx="262.0" cy="84.0" r="6.9" fill="none" stroke="#646d78" stroke-width="1"/><g><circle cx="234.4" cy="132.1" r="5" fill="#0a0d12" stroke="#ff9a2e" stroke-width="1.4"/><path d="M234.4 132.1 L234.4 127.1 A5 5 0 0 1 239.4 132.1 Z" fill="#ff9a2e"/><path d="M234.4 132.1 L234.4 137.1 A5 5 0 0 1 229.4 132.1 Z" fill="#ff9a2e"/></g><line x1="234.4" y1="132.1" x2="234.4" y2="196.0" stroke="#ff9a2e" stroke-width="1" stroke-dasharray="3 4"/><line x1="262.0" y1="186.0" x2="262.0" y2="194.0" stroke="#ff9a2e" stroke-width="1.2"/><line x1="234.4" y1="186.0" x2="234.4" y2="194.0" stroke="#ff9a2e" stroke-width="1.2"/><line x1="262.0" y1="190.0" x2="234.4" y2="190.0" stroke="#ff9a2e" stroke-width="1.2"/><text x="34.0" y="224.0" class="big" text-anchor="start">tuck</text><text x="34.0" y="244.0" class="lbl-a" text-anchor="start">d = 28 px  ·  65% of full</text><line x1="364.0" y1="77.0" x2="369.0" y2="82.0" stroke="#646d78" stroke-width="1"/><line x1="373.0" y1="77.0" x2="378.0" y2="82.0" stroke="#646d78" stroke-width="1"/><line x1="382.0" y1="77.0" x2="387.0" y2="82.0" stroke="#646d78" stroke-width="1"/><line x1="391.0" y1="77.0" x2="396.0" y2="82.0" stroke="#646d78" stroke-width="1"/><line x1="400.0" y1="77.0" x2="405.0" y2="82.0" stroke="#646d78" stroke-width="1"/><line x1="409.0" y1="77.0" x2="414.0" y2="82.0" stroke="#646d78" stroke-width="1"/><line x1="418.0" y1="77.0" x2="423.0" y2="82.0" stroke="#646d78" stroke-width="1"/><line x1="427.0" y1="77.0" x2="432.0" y2="82.0" stroke="#646d78" stroke-width="1"/><line x1="436.0" y1="77.0" x2="441.0" y2="82.0" stroke="#646d78" stroke-width="1"/><line x1="445.0" y1="77.0" x2="450.0" y2="82.0" stroke="#646d78" stroke-width="1"/><line x1="454.0" y1="77.0" x2="459.0" y2="82.0" stroke="#646d78" stroke-width="1"/><line x1="463.0" y1="77.0" x2="468.0" y2="82.0" stroke="#646d78" stroke-width="1"/><line x1="472.0" y1="77.0" x2="477.0" y2="82.0" stroke="#646d78" stroke-width="1"/><line x1="481.0" y1="77.0" x2="486.0" y2="82.0" stroke="#646d78" stroke-width="1"/><line x1="490.0" y1="77.0" x2="495.0" y2="82.0" stroke="#646d78" stroke-width="1"/><line x1="499.0" y1="77.0" x2="504.0" y2="82.0" stroke="#646d78" stroke-width="1"/><line x1="508.0" y1="77.0" x2="513.0" y2="82.0" stroke="#646d78" stroke-width="1"/><line x1="517.0" y1="77.0" x2="522.0" y2="82.0" stroke="#646d78" stroke-width="1"/><line x1="526.0" y1="77.0" x2="531.0" y2="82.0" stroke="#646d78" stroke-width="1"/><line x1="535.0" y1="77.0" x2="540.0" y2="82.0" stroke="#646d78" stroke-width="1"/><line x1="544.0" y1="77.0" x2="549.0" y2="82.0" stroke="#646d78" stroke-width="1"/><line x1="553.0" y1="77.0" x2="558.0" y2="82.0" stroke="#646d78" stroke-width="1"/><line x1="562.0" y1="77.0" x2="567.0" y2="82.0" stroke="#646d78" stroke-width="1"/><line x1="571.0" y1="77.0" x2="576.0" y2="82.0" stroke="#646d78" stroke-width="1"/><line x1="580.0" y1="77.0" x2="585.0" y2="82.0" stroke="#646d78" stroke-width="1"/><line x1="589.0" y1="77.0" x2="594.0" y2="82.0" stroke="#646d78" stroke-width="1"/><line x1="598.0" y1="77.0" x2="603.0" y2="82.0" stroke="#646d78" stroke-width="1"/><line x1="607.0" y1="77.0" x2="612.0" y2="82.0" stroke="#646d78" stroke-width="1"/><line x1="616.0" y1="77.0" x2="621.0" y2="82.0" stroke="#646d78" stroke-width="1"/><line x1="625.0" y1="77.0" x2="630.0" y2="82.0" stroke="#646d78" stroke-width="1"/><line x1="634.0" y1="77.0" x2="639.0" y2="82.0" stroke="#646d78" stroke-width="1"/><line x1="643.0" y1="77.0" x2="648.0" y2="82.0" stroke="#646d78" stroke-width="1"/><line x1="652.0" y1="77.0" x2="657.0" y2="82.0" stroke="#646d78" stroke-width="1"/><line x1="364.0" y1="82.0" x2="660.0" y2="82.0" stroke="#646d78" stroke-width="1.6"/><line x1="592.0" y1="84.0" x2="592.0" y2="196.0" stroke="#646d78" stroke-width="1" stroke-dasharray="3 4"/><polyline points="493.7,84.4 496.0,97.1 540.4,97.1 536.5,141.3 592.0,141.3" fill="none" stroke="#ece7dd" stroke-width="3" stroke-linecap="round" stroke-linejoin="round" opacity="1.0"/><polyline points="592.0,141.3 592.0,111.8 592.0,84.0" fill="none" stroke="#ece7dd" stroke-width="3" stroke-linecap="round" stroke-linejoin="round" opacity="1.0"/><circle cx="612.4" cy="141.3" r="6.4" fill="none" stroke="#ece7dd" stroke-width="3" opacity="1.0"/><circle cx="592.0" cy="84.0" r="3.4" fill="#ece7dd"/><circle cx="592.0" cy="84.0" r="6.9" fill="none" stroke="#646d78" stroke-width="1"/><g><circle cx="559.7" cy="129.1" r="5" fill="#0a0d12" stroke="#ff9a2e" stroke-width="1.4"/><path d="M559.7 129.1 L559.7 124.1 A5 5 0 0 1 564.7 129.1 Z" fill="#ff9a2e"/><path d="M559.7 129.1 L559.7 134.1 A5 5 0 0 1 554.7 129.1 Z" fill="#ff9a2e"/></g><line x1="559.7" y1="129.1" x2="559.7" y2="196.0" stroke="#ff9a2e" stroke-width="1" stroke-dasharray="3 4"/><line x1="592.0" y1="186.0" x2="592.0" y2="194.0" stroke="#ff9a2e" stroke-width="1.2"/><line x1="559.7" y1="186.0" x2="559.7" y2="194.0" stroke="#ff9a2e" stroke-width="1.2"/><line x1="592.0" y1="190.0" x2="559.7" y2="190.0" stroke="#ff9a2e" stroke-width="1.2"/><text x="364.0" y="224.0" class="big" text-anchor="start">advanced tuck</text><text x="364.0" y="244.0" class="lbl-a" text-anchor="start">d = 32 px  ·  76% of full</text><line x1="34.0" y1="291.0" x2="39.0" y2="296.0" stroke="#646d78" stroke-width="1"/><line x1="43.0" y1="291.0" x2="48.0" y2="296.0" stroke="#646d78" stroke-width="1"/><line x1="52.0" y1="291.0" x2="57.0" y2="296.0" stroke="#646d78" stroke-width="1"/><line x1="61.0" y1="291.0" x2="66.0" y2="296.0" stroke="#646d78" stroke-width="1"/><line x1="70.0" y1="291.0" x2="75.0" y2="296.0" stroke="#646d78" stroke-width="1"/><line x1="79.0" y1="291.0" x2="84.0" y2="296.0" stroke="#646d78" stroke-width="1"/><line x1="88.0" y1="291.0" x2="93.0" y2="296.0" stroke="#646d78" stroke-width="1"/><line x1="97.0" y1="291.0" x2="102.0" y2="296.0" stroke="#646d78" stroke-width="1"/><line x1="106.0" y1="291.0" x2="111.0" y2="296.0" stroke="#646d78" stroke-width="1"/><line x1="115.0" y1="291.0" x2="120.0" y2="296.0" stroke="#646d78" stroke-width="1"/><line x1="124.0" y1="291.0" x2="129.0" y2="296.0" stroke="#646d78" stroke-width="1"/><line x1="133.0" y1="291.0" x2="138.0" y2="296.0" stroke="#646d78" stroke-width="1"/><line x1="142.0" y1="291.0" x2="147.0" y2="296.0" stroke="#646d78" stroke-width="1"/><line x1="151.0" y1="291.0" x2="156.0" y2="296.0" stroke="#646d78" stroke-width="1"/><line x1="160.0" y1="291.0" x2="165.0" y2="296.0" stroke="#646d78" stroke-width="1"/><line x1="169.0" y1="291.0" x2="174.0" y2="296.0" stroke="#646d78" stroke-width="1"/><line x1="178.0" y1="291.0" x2="183.0" y2="296.0" stroke="#646d78" stroke-width="1"/><line x1="187.0" y1="291.0" x2="192.0" y2="296.0" stroke="#646d78" stroke-width="1"/><line x1="196.0" y1="291.0" x2="201.0" y2="296.0" stroke="#646d78" stroke-width="1"/><line x1="205.0" y1="291.0" x2="210.0" y2="296.0" stroke="#646d78" stroke-width="1"/><line x1="214.0" y1="291.0" x2="219.0" y2="296.0" stroke="#646d78" stroke-width="1"/><line x1="223.0" y1="291.0" x2="228.0" y2="296.0" stroke="#646d78" stroke-width="1"/><line x1="232.0" y1="291.0" x2="237.0" y2="296.0" stroke="#646d78" stroke-width="1"/><line x1="241.0" y1="291.0" x2="246.0" y2="296.0" stroke="#646d78" stroke-width="1"/><line x1="250.0" y1="291.0" x2="255.0" y2="296.0" stroke="#646d78" stroke-width="1"/><line x1="259.0" y1="291.0" x2="264.0" y2="296.0" stroke="#646d78" stroke-width="1"/><line x1="268.0" y1="291.0" x2="273.0" y2="296.0" stroke="#646d78" stroke-width="1"/><line x1="277.0" y1="291.0" x2="282.0" y2="296.0" stroke="#646d78" stroke-width="1"/><line x1="286.0" y1="291.0" x2="291.0" y2="296.0" stroke="#646d78" stroke-width="1"/><line x1="295.0" y1="291.0" x2="300.0" y2="296.0" stroke="#646d78" stroke-width="1"/><line x1="304.0" y1="291.0" x2="309.0" y2="296.0" stroke="#646d78" stroke-width="1"/><line x1="313.0" y1="291.0" x2="318.0" y2="296.0" stroke="#646d78" stroke-width="1"/><line x1="322.0" y1="291.0" x2="327.0" y2="296.0" stroke="#646d78" stroke-width="1"/><line x1="34.0" y1="296.0" x2="330.0" y2="296.0" stroke="#646d78" stroke-width="1.6"/><line x1="262.0" y1="298.0" x2="262.0" y2="410.0" stroke="#646d78" stroke-width="1" stroke-dasharray="3 4"/><polyline points="154.3,348.0 155.6,355.4 181.0,355.4 206.5,355.4 262.0,355.4" fill="none" stroke="#ece7dd" stroke-width="3" stroke-linecap="round" stroke-linejoin="round" opacity="1.0"/><polyline points="262.0,355.4 262.0,325.8 262.0,298.0" fill="none" stroke="#ece7dd" stroke-width="3" stroke-linecap="round" stroke-linejoin="round" opacity="1.0"/><circle cx="282.4" cy="355.4" r="6.4" fill="none" stroke="#ece7dd" stroke-width="3" opacity="1.0"/><circle cx="262.0" cy="298.0" r="3.4" fill="#ece7dd"/><circle cx="262.0" cy="298.0" r="6.9" fill="none" stroke="#646d78" stroke-width="1"/><g><circle cx="224.9" cy="352.4" r="5" fill="#0a0d12" stroke="#ff9a2e" stroke-width="1.4"/><path d="M224.9 352.4 L224.9 347.4 A5 5 0 0 1 229.9 352.4 Z" fill="#ff9a2e"/><path d="M224.9 352.4 L224.9 357.4 A5 5 0 0 1 219.9 352.4 Z" fill="#ff9a2e"/></g><line x1="224.9" y1="352.4" x2="224.9" y2="410.0" stroke="#ff9a2e" stroke-width="1" stroke-dasharray="3 4"/><line x1="262.0" y1="400.0" x2="262.0" y2="408.0" stroke="#ff9a2e" stroke-width="1.2"/><line x1="224.9" y1="400.0" x2="224.9" y2="408.0" stroke="#ff9a2e" stroke-width="1.2"/><line x1="262.0" y1="404.0" x2="224.9" y2="404.0" stroke="#ff9a2e" stroke-width="1.2"/><text x="34.0" y="438.0" class="big" text-anchor="start">straddle</text><text x="34.0" y="458.0" class="lbl-a" text-anchor="start">d = 37 px  ·  88% of full</text><line x1="364.0" y1="291.0" x2="369.0" y2="296.0" stroke="#646d78" stroke-width="1"/><line x1="373.0" y1="291.0" x2="378.0" y2="296.0" stroke="#646d78" stroke-width="1"/><line x1="382.0" y1="291.0" x2="387.0" y2="296.0" stroke="#646d78" stroke-width="1"/><line x1="391.0" y1="291.0" x2="396.0" y2="296.0" stroke="#646d78" stroke-width="1"/><line x1="400.0" y1="291.0" x2="405.0" y2="296.0" stroke="#646d78" stroke-width="1"/><line x1="409.0" y1="291.0" x2="414.0" y2="296.0" stroke="#646d78" stroke-width="1"/><line x1="418.0" y1="291.0" x2="423.0" y2="296.0" stroke="#646d78" stroke-width="1"/><line x1="427.0" y1="291.0" x2="432.0" y2="296.0" stroke="#646d78" stroke-width="1"/><line x1="436.0" y1="291.0" x2="441.0" y2="296.0" stroke="#646d78" stroke-width="1"/><line x1="445.0" y1="291.0" x2="450.0" y2="296.0" stroke="#646d78" stroke-width="1"/><line x1="454.0" y1="291.0" x2="459.0" y2="296.0" stroke="#646d78" stroke-width="1"/><line x1="463.0" y1="291.0" x2="468.0" y2="296.0" stroke="#646d78" stroke-width="1"/><line x1="472.0" y1="291.0" x2="477.0" y2="296.0" stroke="#646d78" stroke-width="1"/><line x1="481.0" y1="291.0" x2="486.0" y2="296.0" stroke="#646d78" stroke-width="1"/><line x1="490.0" y1="291.0" x2="495.0" y2="296.0" stroke="#646d78" stroke-width="1"/><line x1="499.0" y1="291.0" x2="504.0" y2="296.0" stroke="#646d78" stroke-width="1"/><line x1="508.0" y1="291.0" x2="513.0" y2="296.0" stroke="#646d78" stroke-width="1"/><line x1="517.0" y1="291.0" x2="522.0" y2="296.0" stroke="#646d78" stroke-width="1"/><line x1="526.0" y1="291.0" x2="531.0" y2="296.0" stroke="#646d78" stroke-width="1"/><line x1="535.0" y1="291.0" x2="540.0" y2="296.0" stroke="#646d78" stroke-width="1"/><line x1="544.0" y1="291.0" x2="549.0" y2="296.0" stroke="#646d78" stroke-width="1"/><line x1="553.0" y1="291.0" x2="558.0" y2="296.0" stroke="#646d78" stroke-width="1"/><line x1="562.0" y1="291.0" x2="567.0" y2="296.0" stroke="#646d78" stroke-width="1"/><line x1="571.0" y1="291.0" x2="576.0" y2="296.0" stroke="#646d78" stroke-width="1"/><line x1="580.0" y1="291.0" x2="585.0" y2="296.0" stroke="#646d78" stroke-width="1"/><line x1="589.0" y1="291.0" x2="594.0" y2="296.0" stroke="#646d78" stroke-width="1"/><line x1="598.0" y1="291.0" x2="603.0" y2="296.0" stroke="#646d78" stroke-width="1"/><line x1="607.0" y1="291.0" x2="612.0" y2="296.0" stroke="#646d78" stroke-width="1"/><line x1="616.0" y1="291.0" x2="621.0" y2="296.0" stroke="#646d78" stroke-width="1"/><line x1="625.0" y1="291.0" x2="630.0" y2="296.0" stroke="#646d78" stroke-width="1"/><line x1="634.0" y1="291.0" x2="639.0" y2="296.0" stroke="#646d78" stroke-width="1"/><line x1="643.0" y1="291.0" x2="648.0" y2="296.0" stroke="#646d78" stroke-width="1"/><line x1="652.0" y1="291.0" x2="657.0" y2="296.0" stroke="#646d78" stroke-width="1"/><line x1="364.0" y1="296.0" x2="660.0" y2="296.0" stroke="#646d78" stroke-width="1.6"/><line x1="592.0" y1="298.0" x2="592.0" y2="410.0" stroke="#646d78" stroke-width="1" stroke-dasharray="3 4"/><polyline points="445.5,342.6 447.7,355.4 492.1,355.4 536.5,355.4 592.0,355.4" fill="none" stroke="#ece7dd" stroke-width="3" stroke-linecap="round" stroke-linejoin="round" opacity="1.0"/><polyline points="592.0,355.4 592.0,325.8 592.0,298.0" fill="none" stroke="#ece7dd" stroke-width="3" stroke-linecap="round" stroke-linejoin="round" opacity="1.0"/><circle cx="612.4" cy="355.4" r="6.4" fill="none" stroke="#ece7dd" stroke-width="3" opacity="1.0"/><circle cx="592.0" cy="298.0" r="3.4" fill="#ece7dd"/><circle cx="592.0" cy="298.0" r="6.9" fill="none" stroke="#646d78" stroke-width="1"/><g><circle cx="549.6" cy="352.3" r="5" fill="#0a0d12" stroke="#ff9a2e" stroke-width="1.4"/><path d="M549.6 352.3 L549.6 347.3 A5 5 0 0 1 554.6 352.3 Z" fill="#ff9a2e"/><path d="M549.6 352.3 L549.6 357.3 A5 5 0 0 1 544.6 352.3 Z" fill="#ff9a2e"/></g><line x1="549.6" y1="352.3" x2="549.6" y2="410.0" stroke="#ff9a2e" stroke-width="1" stroke-dasharray="3 4"/><line x1="592.0" y1="400.0" x2="592.0" y2="408.0" stroke="#ff9a2e" stroke-width="1.2"/><line x1="549.6" y1="400.0" x2="549.6" y2="408.0" stroke="#ff9a2e" stroke-width="1.2"/><line x1="592.0" y1="404.0" x2="549.6" y2="404.0" stroke="#ff9a2e" stroke-width="1.2"/><text x="364.0" y="438.0" class="big" text-anchor="start">full lay</text><text x="364.0" y="458.0" class="lbl-a" text-anchor="start">d = 42 px  ·  100% of full</text><text x="26.0" y="512.0" class="lbl-s" text-anchor="start">Identical lever maths to the front lever — but here the shoulder is in extension, not flexion.</text><text x="26.0" y="528.0" class="lbl-s" text-anchor="start">That is why the german hang comes first and why nobody should rush this one.</text></svg>
