<svg xmlns="http://www.w3.org/2000/svg" viewBox="0 0 560 300" role="img" aria-label="Centre of mass over the base of support in a handstand"><title>Centre of mass over the base of support in a handstand</title><defs><marker id="a" viewBox="0 0 10 10" refX="9" refY="5" markerWidth="7" markerHeight="7" orient="auto-start-reverse"><path d="M0 0 L10 5 L0 10 z" fill="#ff9a2e"/></marker><marker id="am" viewBox="0 0 10 10" refX="9" refY="5" markerWidth="6" markerHeight="6" orient="auto-start-reverse"><path d="M0 0 L10 5 L0 10 z" fill="#646d78"/></marker></defs><style>.lbl{font:500 11px "JetBrains Mono",ui-monospace,monospace;fill:#9aa3ad}.lbl-a{font:500 11px "JetBrains Mono",ui-monospace,monospace;fill:#ff9a2e}.lbl-s{font:400 9.5px "JetBrains Mono",ui-monospace,monospace;fill:#646d78;letter-spacing:.08em}.big{font:700 13px "JetBrains Mono",ui-monospace,monospace;fill:#ece7dd}</style><text x="40.0" y="34.0" class="lbl-s" text-anchor="start">BALANCE IS ONE RULE, AND YOUR FINGERS ENFORCE IT</text><line x1="60.0" y1="229.0" x2="65.0" y2="224.0" stroke="#646d78" stroke-width="1"/><line x1="69.0" y1="229.0" x2="74.0" y2="224.0" stroke="#646d78" stroke-width="1"/><line x1="78.0" y1="229.0" x2="83.0" y2="224.0" stroke="#646d78" stroke-width="1"/><line x1="87.0" y1="229.0" x2="92.0" y2="224.0" stroke="#646d78" stroke-width="1"/><line x1="96.0" y1="229.0" x2="101.0" y2="224.0" stroke="#646d78" stroke-width="1"/><line x1="105.0" y1="229.0" x2="110.0" y2="224.0" stroke="#646d78" stroke-width="1"/><line x1="114.0" y1="229.0" x2="119.0" y2="224.0" stroke="#646d78" stroke-width="1"/><line x1="123.0" y1="229.0" x2="128.0" y2="224.0" stroke="#646d78" stroke-width="1"/><line x1="132.0" y1="229.0" x2="137.0" y2="224.0" stroke="#646d78" stroke-width="1"/><line x1="141.0" y1="229.0" x2="146.0" y2="224.0" stroke="#646d78" stroke-width="1"/><line x1="150.0" y1="229.0" x2="155.0" y2="224.0" stroke="#646d78" stroke-width="1"/><line x1="159.0" y1="229.0" x2="164.0" y2="224.0" stroke="#646d78" stroke-width="1"/><line x1="168.0" y1="229.0" x2="173.0" y2="224.0" stroke="#646d78" stroke-width="1"/><line x1="177.0" y1="229.0" x2="182.0" y2="224.0" stroke="#646d78" stroke-width="1"/><line x1="186.0" y1="229.0" x2="191.0" y2="224.0" stroke="#646d78" stroke-width="1"/><line x1="195.0" y1="229.0" x2="200.0" y2="224.0" stroke="#646d78" stroke-width="1"/><line x1="204.0" y1="229.0" x2="209.0" y2="224.0" stroke="#646d78" stroke-width="1"/><line x1="213.0" y1="229.0" x2="218.0" y2="224.0" stroke="#646d78" stroke-width="1"/><line x1="222.0" y1="229.0" x2="227.0" y2="224.0" stroke="#646d78" stroke-width="1"/><line x1="231.0" y1="229.0" x2="236.0" y2="224.0" stroke="#646d78" stroke-width="1"/><line x1="60.0" y1="224.0" x2="240.0" y2="224.0" stroke="#646d78" stroke-width="1.6"/><polyline points="150.0,45.8 150.0,56.0 150.0,90.8 150.0,125.6 150.0,169.1" fill="none" stroke="#ece7dd" stroke-width="3" stroke-linecap="round" stroke-linejoin="round" opacity="1.0"/><polyline points="150.0,169.1 150.0,192.2 150.0,214.0" fill="none" stroke="#ece7dd" stroke-width="3" stroke-linecap="round" stroke-linejoin="round" opacity="1.0"/><circle cx="150.0" cy="185.0" r="6.4" fill="none" stroke="#ece7dd" stroke-width="3" opacity="1.0"/><rect x="134" y="210" width="34" height="7" fill="#ff9a2e" opacity="0.30"/><g><circle cx="150.0" cy="137.9" r="5" fill="#0a0d12" stroke="#ff9a2e" stroke-width="1.4"/><path d="M150.0 137.9 L150.0 132.9 A5 5 0 0 1 155.0 137.9 Z" fill="#ff9a2e"/><path d="M150.0 137.9 L150.0 142.9 A5 5 0 0 1 145.0 137.9 Z" fill="#ff9a2e"/></g><line x1="150.0" y1="137.9" x2="150.0" y2="222.0" stroke="#ff9a2e" stroke-width="1.3" stroke-dasharray="4 4"/><text x="150.0" y="250.0" class="lbl-a" text-anchor="middle">BALANCED</text><text x="150.0" y="268.0" class="lbl-s" text-anchor="middle">line of gravity inside the hands</text><line x1="300.0" y1="229.0" x2="305.0" y2="224.0" stroke="#646d78" stroke-width="1"/><line x1="309.0" y1="229.0" x2="314.0" y2="224.0" stroke="#646d78" stroke-width="1"/><line x1="318.0" y1="229.0" x2="323.0" y2="224.0" stroke="#646d78" stroke-width="1"/><line x1="327.0" y1="229.0" x2="332.0" y2="224.0" stroke="#646d78" stroke-width="1"/><line x1="336.0" y1="229.0" x2="341.0" y2="224.0" stroke="#646d78" stroke-width="1"/><line x1="345.0" y1="229.0" x2="350.0" y2="224.0" stroke="#646d78" stroke-width="1"/><line x1="354.0" y1="229.0" x2="359.0" y2="224.0" stroke="#646d78" stroke-width="1"/><line x1="363.0" y1="229.0" x2="368.0" y2="224.0" stroke="#646d78" stroke-width="1"/><line x1="372.0" y1="229.0" x2="377.0" y2="224.0" stroke="#646d78" stroke-width="1"/><line x1="381.0" y1="229.0" x2="386.0" y2="224.0" stroke="#646d78" stroke-width="1"/><line x1="390.0" y1="229.0" x2="395.0" y2="224.0" stroke="#646d78" stroke-width="1"/><line x1="399.0" y1="229.0" x2="404.0" y2="224.0" stroke="#646d78" stroke-width="1"/><line x1="408.0" y1="229.0" x2="413.0" y2="224.0" stroke="#646d78" stroke-width="1"/><line x1="417.0" y1="229.0" x2="422.0" y2="224.0" stroke="#646d78" stroke-width="1"/><line x1="426.0" y1="229.0" x2="431.0" y2="224.0" stroke="#646d78" stroke-width="1"/><line x1="435.0" y1="229.0" x2="440.0" y2="224.0" stroke="#646d78" stroke-width="1"/><line x1="444.0" y1="229.0" x2="449.0" y2="224.0" stroke="#646d78" stroke-width="1"/><line x1="453.0" y1="229.0" x2="458.0" y2="224.0" stroke="#646d78" stroke-width="1"/><line x1="462.0" y1="229.0" x2="467.0" y2="224.0" stroke="#646d78" stroke-width="1"/><line x1="471.0" y1="229.0" x2="476.0" y2="224.0" stroke="#646d78" stroke-width="1"/><line x1="300.0" y1="224.0" x2="480.0" y2="224.0" stroke="#646d78" stroke-width="1.6"/><polyline points="357.0,49.6 359.8,59.4 369.4,92.8 379.0,126.3 385.6,169.3" fill="none" stroke="#ece7dd" stroke-width="3" stroke-linecap="round" stroke-linejoin="round" opacity="1.0"/><polyline points="385.6,169.3 387.9,192.4 390.0,214.0" fill="none" stroke="#ece7dd" stroke-width="3" stroke-linecap="round" stroke-linejoin="round" opacity="1.0"/><circle cx="386.9" cy="185.2" r="6.4" fill="none" stroke="#ece7dd" stroke-width="3" opacity="1.0"/><rect x="374" y="210" width="34" height="7" fill="#ff9a2e" opacity="0.30"/><g><circle cx="379.4" cy="138.8" r="5" fill="#0a0d12" stroke="#ff9a2e" stroke-width="1.4"/><path d="M379.4 138.8 L379.4 133.8 A5 5 0 0 1 384.4 138.8 Z" fill="#ff9a2e"/><path d="M379.4 138.8 L379.4 143.8 A5 5 0 0 1 374.4 138.8 Z" fill="#ff9a2e"/></g><line x1="379.4" y1="138.8" x2="379.4" y2="222.0" stroke="#ff9a2e" stroke-width="1.3" stroke-dasharray="4 4"/><text x="390.0" y="250.0" class="lbl-a" text-anchor="middle">FALLING OVER</text><text x="390.0" y="268.0" class="lbl-s" text-anchor="middle">line of gravity past the fingers</text><text x="40.0" y="292.0" class="lbl-s" text-anchor="start">Press the fingers to stop going over; press the heel of the hand to stop falling back.</text></svg>
